<?xml version="1.0" encoding="utf-8"?>
<!-- Generator: Adobe Illustrator 16.0.3, SVG Export Plug-In . SVG Version: 6.00 Build 0)  -->
<!DOCTYPE svg PUBLIC "-//W3C//DTD SVG 1.1//EN" "http://www.w3.org/Graphics/SVG/1.1/DTD/svg11.dtd">
<svg version="1.1" id="Layer_1" xmlns="http://www.w3.org/2000/svg" xmlns:xlink="http://www.w3.org/1999/xlink" x="0px" y="0px"
	 width="2682.952px" height="387.5px" viewBox="0 0 2682.952 387.5" enable-background="new 0 0 2682.952 387.5"
	 xml:space="preserve">
<g>
	<path fill="#1DACE9" d="M115.5,116.5l-18,49H152l-2,7H95.5l-57,159c-1.672,5-3.336,10.172-5,15.5c-1.672,5.336-2.5,10.672-2.5,16
		c0,5,1.25,9,3.75,12s6.578,4.5,12.25,4.5c6,0,11.664-1.828,17-5.5c5.328-3.664,10.164-7.914,14.5-12.75
		c4.328-4.828,8-9.75,11-14.75s5.164-9,6.5-12l6,2.5c-1.336,2.672-3.5,6.75-6.5,12.25s-7,11-12,16.5S72.25,376,64.75,380
		s-16.422,6-26.75,6c-12.672,0-22.172-3.086-28.5-9.25C3.164,370.586,0,363.172,0,354.5c0-6.664,1.25-14.25,3.75-22.75
		s5.078-16.25,7.75-23.25l49-136h-45l2-7h45l18-49H115.5z"/>
	<path fill="#1DACE9" d="M228.995,7l2-7h79l-83.5,226.5h1c5-6.664,10.828-13.75,17.5-21.25c6.664-7.5,14-14.414,22-20.75
		c8-6.328,16.414-11.578,25.25-15.75c8.828-4.164,17.75-6.25,26.75-6.25c14,0,25.078,3.75,33.25,11.25
		c8.164,7.5,12.25,16.75,12.25,27.75c0,5.672-0.922,11.25-2.75,16.75c-1.836,5.5-4.086,12.086-6.75,19.75l-32.5,92.5
		c-2,5.672-3.836,11.25-5.5,16.75c-1.672,5.5-2.5,10.922-2.5,16.25c0,4,0.828,7.672,2.5,11c1.664,3.336,5.164,5,10.5,5
		c6,0,11.5-1.664,16.5-5c5-3.328,9.578-7.328,13.75-12c4.164-4.664,7.75-9.578,10.75-14.75c3-5.164,5.328-9.578,7-13.25l5.5,2.5
		c-1.672,3.336-4,7.75-7,13.25s-6.922,10.922-11.75,16.25c-4.836,5.336-10.75,9.922-17.75,13.75s-15.336,5.75-25,5.75
		c-10.672,0-19.672-2.336-27-7c-7.336-4.664-11-12.328-11-23c0-4.328,0.578-8.828,1.75-13.5c1.164-4.664,2.578-9.664,4.25-15
		l42-119.5c2.664-8,4-14.664,4-20c0-4.328-1.422-8.5-4.25-12.5c-2.836-4-7.922-6-15.25-6c-7.336,0-15.836,2.75-25.5,8.25
		c-9.672,5.5-19.336,13-29,22.5c-9.672,9.5-18.75,20.672-27.25,33.5c-8.5,12.836-15.422,26.75-20.75,41.75l-37.5,104.5h-34.5
		l135-373H228.995z"/>
	<path fill="#1DACE9" d="M567.489,343.75c-4,6.172-9.5,12.336-16.5,18.5c-7,6.172-15.586,11.672-25.75,16.5
		c-10.172,4.828-22.422,7.25-36.75,7.25c-14.336,0-26.422-2.336-36.25-7c-9.836-4.664-17.836-10.664-24-18
		c-6.172-7.328-10.672-15.414-13.5-24.25c-2.836-8.828-4.25-17.414-4.25-25.75c0-16.664,4.078-33.914,12.25-51.75
		c8.164-17.828,18.828-34.164,32-49c13.164-14.828,28.078-27.078,44.75-36.75c16.664-9.664,33.664-14.5,51-14.5
		c6.664,0,13.328,0.75,20,2.25c6.664,1.5,12.664,3.75,18,6.75c5.328,3,9.664,6.836,13,11.5c3.328,4.672,5,10.336,5,17
		c0,9-2.422,16.922-7.25,23.75c-4.836,6.836-11.086,12.672-18.75,17.5c-7.672,4.836-16.086,8.922-25.25,12.25
		c-9.172,3.336-18.086,5.922-26.75,7.75c-8.672,1.836-16.586,3.172-23.75,4c-7.172,0.836-12.422,1.25-15.75,1.25
		c-5.672,0-11.172-0.164-16.5-0.5c-5.336-0.328-10-0.828-14-1.5c-3.672,10.672-6.75,21.25-9.25,31.75s-3.75,21.586-3.75,33.25
		c0,18,4.664,31.422,14,40.25c9.328,8.836,21.164,13.25,35.5,13.25c10.664,0,20.078-2.078,28.25-6.25
		c8.164-4.164,15.328-9.078,21.5-14.75c6.164-5.664,11.328-11.414,15.5-17.25c4.164-5.828,7.578-10.414,10.25-13.75l6,3.5
		C574.489,333.336,571.489,337.586,567.489,343.75z M569.489,173c-4-4.664-10.672-7-20-7c-10.336,0-20.25,3-29.75,9
		s-18.086,13.422-25.75,22.25c-7.672,8.836-14.336,18.336-20,28.5c-5.672,10.172-10,19.586-13,28.25c7.664,1.336,16.164,2,25.5,2
		c12,0,23.328-1.828,34-5.5c10.664-3.664,20.078-8.5,28.25-14.5c8.164-6,14.664-13,19.5-21c4.828-8,7.25-16.328,7.25-25
		C575.489,183.336,573.489,177.672,569.489,173z"/>
	<path d="M729.986,272.5h5.5c3.665,18,8.415,33.172,14.25,45.5c5.829,12.336,12.25,22.5,19.25,30.5s14.329,14.172,22,18.5
		c7.665,4.336,15.415,7.5,23.25,9.5c7.829,2,15.329,3.172,22.5,3.5c7.165,0.328,13.915,0.5,20.25,0.5c17.665,0,32.165-2.664,43.5-8
		c11.329-5.328,20.329-12.078,27-20.25c6.665-8.164,11.329-17,14-26.5c2.665-9.5,4-18.25,4-26.25c0-11.664-2.172-21.664-6.5-30
		c-4.335-8.328-9.835-15.414-16.5-21.25c-6.671-5.828-13.921-10.578-21.75-14.25c-7.835-3.664-15.25-6.5-22.25-8.5l-57.5-17.5
		c-27-8.328-47.421-19.328-61.25-33c-13.835-13.664-20.75-32-20.75-55c0-15,2.665-28.914,8-41.75
		c5.329-12.828,12.829-23.914,22.5-33.25c9.665-9.328,21.25-16.664,34.75-22c13.5-5.328,28.25-8,44.25-8c11.665,0,21.415,1,29.25,3
		c7.829,2,14.579,4.25,20.25,6.75c5.665,2.5,10.75,4.75,15.25,6.75s9.079,3,13.75,3c4.329,0,7.25-0.578,8.75-1.75
		c1.5-1.164,3.579-4.078,6.25-8.75h7v90.5h-6c-2-12-5.422-23.578-10.25-34.75c-4.835-11.164-11.085-21-18.75-29.5
		c-7.671-8.5-16.921-15.328-27.75-20.5C875.4,24.586,862.814,22,848.486,22c-8,0-16.835,1.086-26.5,3.25
		c-9.671,2.172-18.671,5.922-27,11.25c-8.335,5.336-15.25,12.336-20.75,21c-5.5,8.672-8.25,19.672-8.25,33
		c0,10.672,2.165,19.75,6.5,27.25c4.329,7.5,9.915,13.836,16.75,19c6.829,5.172,14.5,9.5,23,13s17.079,6.586,25.75,9.25l60.5,19
		c6.329,2,14.329,4.672,24,8c9.665,3.336,19.079,8.336,28.25,15c9.164,6.672,17,15.5,23.5,26.5s9.75,25,9.75,42
		c0,15.672-2.922,30.586-8.75,44.75c-5.836,14.172-14.25,26.672-25.25,37.5c-11,10.836-24.336,19.5-40,26
		c-15.671,6.5-33.335,9.75-53,9.75c-7,0-13.171-0.086-18.5-0.25c-5.335-0.172-10.335-0.586-15-1.25
		c-4.671-0.672-9.335-1.422-14-2.25c-4.671-0.836-9.835-2.086-15.5-3.75c-6.671-2-13.835-4.328-21.5-7c-7.671-2.664-14.335-4-20-4
		c-5,0-8.421,1-10.25,3c-1.835,2-3.421,4.672-4.75,8h-7.5V272.5z"/>
	<path d="M1218.982,325c-1,3.672-2.922,8.922-5.75,15.75c-2.836,6.836-7.336,13.672-13.5,20.5c-6.172,6.836-14.5,12.836-25,18
		s-24.086,7.75-40.75,7.75c-12.672,0-25.836-2-39.5-6c-13.672-4-26.172-10.414-37.5-19.25c-11.336-8.828-20.586-20.414-27.75-34.75
		c-7.172-14.328-10.75-32-10.75-53c0-16.328,3.078-31.5,9.25-45.5c6.164-14,14.5-26.164,25-36.5c10.5-10.328,22.828-18.414,37-24.25
		c14.164-5.828,29.25-8.75,45.25-8.75c9,0,18.25,1.086,27.75,3.25c9.5,2.172,18.164,5.5,26,10c7.828,4.5,14.328,10.336,19.5,17.5
		c5.164,7.172,7.75,15.922,7.75,26.25c0,7-2.25,12.75-6.75,17.25s-10.922,6.75-19.25,6.75c-5.672,0-11.086-1.25-16.25-3.75
		c-5.172-2.5-7.75-6.75-7.75-12.75c0-4.664,1.164-10.328,3.5-17c2.328-6.664,3.5-12.164,3.5-16.5c0-7.664-3.836-13.578-11.5-17.75
		c-7.672-4.164-16.5-6.25-26.5-6.25c-7.336,0-14.922,0.922-22.75,2.75c-7.836,1.836-15,6.422-21.5,13.75
		c-6.5,7.336-11.836,18.336-16,33c-4.172,14.672-6.25,34.672-6.25,60c0,14.336,0.914,27.836,2.75,40.5
		c1.828,12.672,5.164,23.75,10,33.25c4.828,9.5,11.5,17,20,22.5s19.578,8.25,33.25,8.25c14.664,0,26.75-2.164,36.25-6.5
		c9.5-4.328,17-9.578,22.5-15.75c5.5-6.164,9.578-12.414,12.25-18.75c2.664-6.328,4.664-11.5,6-15.5L1218.982,325z"/>
	<path d="M1247.976,373h38.5V172.5h-38.5v-7h80.5V216h1c1.328-5,3.5-10.664,6.5-17c3-6.328,7.164-12.414,12.5-18.25
		c5.328-5.828,11.75-10.75,19.25-14.75s16.578-6,27.25-6c7.664,0,14.328,1.25,20,3.75c5.664,2.5,10.328,5.672,14,9.5
		c3.664,3.836,6.328,8.25,8,13.25c1.664,5,2.5,10,2.5,15c0,11-2.5,18.336-7.5,22c-5,3.672-10.836,5.5-17.5,5.5
		c-14.672,0-22-4.664-22-14c0-3,0.328-5.414,1-7.25c0.664-1.828,1.414-3.664,2.25-5.5c0.828-1.828,1.578-3.914,2.25-6.25
		c0.664-2.328,1-5.664,1-10c0-10.664-5.836-16-17.5-16c-5.336,0-11,2-17,6s-11.586,9.836-16.75,17.5
		c-5.172,7.672-9.5,16.922-13,27.75c-3.5,10.836-5.25,23.25-5.25,37.25V373h43.5v7h-125V373z"/>
	<path d="M1461.975,373h38.5V172.5h-38.5v-7h81.5V373h38.5v7h-120V373z M1494.475,49c0-7.328,2.578-13.578,7.75-18.75
		c5.164-5.164,11.414-7.75,18.75-7.75c7.328,0,13.578,2.586,18.75,7.75c5.164,5.172,7.75,11.422,7.75,18.75
		c0,7.336-2.586,13.586-7.75,18.75c-5.172,5.172-11.422,7.75-18.75,7.75c-7.336,0-13.586-2.578-18.75-7.75
		C1497.053,62.586,1494.475,56.336,1494.475,49z"/>
	<path d="M1609.97,373h38.5V26.5h-38.5v-7h81.5v186h1c4.664-13,12.664-24,24-33c11.328-9,26.164-13.5,44.5-13.5
		c14.328,0,27.828,3.086,40.5,9.25c12.664,6.172,23.828,14.336,33.5,24.5c9.664,10.172,17.328,22.086,23,35.75
		c5.664,13.672,8.5,28,8.5,43c0,15.336-2.922,29.922-8.75,43.75c-5.836,13.836-13.75,26.086-23.75,36.75
		c-10,10.672-21.586,19.172-34.75,25.5c-13.172,6.328-27.086,9.5-41.75,9.5c-11.336,0-20.922-1.922-28.75-5.75
		c-7.836-3.828-14.336-8.414-19.5-13.75c-5.172-5.328-9.086-10.828-11.75-16.5c-2.672-5.664-4.672-10.5-6-14.5h-1V380h-80.5V373z
		 M1816.471,265.5c0-15.328-0.836-29.078-2.5-41.25c-1.672-12.164-4.586-22.578-8.75-31.25c-4.172-8.664-10-15.328-17.5-20
		c-7.5-4.664-17.086-7-28.75-7c-12.336,0-22.5,2.172-30.5,6.5c-8,4.336-14.5,9.836-19.5,16.5c-3.672,4.672-6.586,9.672-8.75,15
		c-2.172,5.336-3.922,11.672-5.25,19c-1.336,7.336-2.25,15.75-2.75,25.25s-0.75,20.75-0.75,33.75c0,11,0.828,22.336,2.5,34
		c1.664,11.672,4.828,22.25,9.5,31.75c4.664,9.5,11.25,17.25,19.75,23.25s19.75,9,33.75,9c13.664,0,24.5-2.664,32.5-8
		c8-5.328,14-13,18-23s6.5-22.078,7.5-36.25C1815.971,298.586,1816.471,282.836,1816.471,265.5z"/>
	<path d="M1875.464,373h38.5V26.5h-38.5v-7h81.5v186h1c4.664-13,12.664-24,24-33c11.328-9,26.164-13.5,44.5-13.5
		c14.328,0,27.828,3.086,40.5,9.25c12.664,6.172,23.828,14.336,33.5,24.5c9.664,10.172,17.328,22.086,23,35.75
		c5.664,13.672,8.5,28,8.5,43c0,15.336-2.922,29.922-8.75,43.75c-5.836,13.836-13.75,26.086-23.75,36.75
		c-10,10.672-21.586,19.172-34.75,25.5c-13.172,6.328-27.086,9.5-41.75,9.5c-11.336,0-20.922-1.922-28.75-5.75
		c-7.836-3.828-14.336-8.414-19.5-13.75c-5.172-5.328-9.086-10.828-11.75-16.5c-2.672-5.664-4.672-10.5-6-14.5h-1V380h-80.5V373z
		 M2081.964,265.5c0-15.328-0.836-29.078-2.5-41.25c-1.672-12.164-4.586-22.578-8.75-31.25c-4.172-8.664-10-15.328-17.5-20
		c-7.5-4.664-17.086-7-28.75-7c-12.336,0-22.5,2.172-30.5,6.5c-8,4.336-14.5,9.836-19.5,16.5c-3.672,4.672-6.586,9.672-8.75,15
		c-2.172,5.336-3.922,11.672-5.25,19c-1.336,7.336-2.25,15.75-2.75,25.25s-0.75,20.75-0.75,33.75c0,11,0.828,22.336,2.5,34
		c1.664,11.672,4.828,22.25,9.5,31.75c4.664,9.5,11.25,17.25,19.75,23.25s19.75,9,33.75,9c13.664,0,24.5-2.664,32.5-8
		c8-5.328,14-13,18-23s6.5-22.078,7.5-36.25C2081.464,298.586,2081.964,282.836,2081.964,265.5z"/>
	<path d="M2137.957,373h38.5V26.5h-38.5v-7h81.5V373h38.5v7h-120V373z"/>
	<path d="M2318.952,256c0,3.336-0.086,6.75-0.25,10.25c-0.172,3.5-0.25,7.922-0.25,13.25c0,11,0.664,22.5,2,34.5
		c1.328,12,4.25,22.836,8.75,32.5c4.5,9.672,11.164,17.672,20,24c8.828,6.336,20.578,9.5,35.25,9.5c14.664,0,26.75-2.164,36.25-6.5
		c9.5-4.328,17-9.578,22.5-15.75c5.5-6.164,9.578-12.414,12.25-18.75c2.664-6.328,4.664-11.5,6-15.5l7.5,1.5
		c-1,3.672-2.922,8.922-5.75,15.75c-2.836,6.836-7.336,13.672-13.5,20.5c-6.172,6.836-14.5,12.836-25,18s-24.086,7.75-40.75,7.75
		c-16.672,0-32.086-2.672-46.25-8c-14.172-5.328-26.422-13-36.75-23c-10.336-10-18.336-21.914-24-35.75
		c-5.672-13.828-8.5-29.25-8.5-46.25c0-14.664,2.914-28.914,8.75-42.75c5.828-13.828,13.828-26.078,24-36.75
		c10.164-10.664,22.078-19.25,35.75-25.75c13.664-6.5,28.328-9.75,44-9.75c9.328,0,19.328,1.672,30,5
		c10.664,3.336,20.578,8.75,29.75,16.25c9.164,7.5,16.828,17.422,23,29.75c6.164,12.336,9.25,27.672,9.25,46H2318.952z
		 M2421.952,249c0.664-4.664,1-9,1-13s0-8.164,0-12.5c0-11.328-1.086-20.664-3.25-28c-2.172-7.328-5.172-13.164-9-17.5
		c-3.836-4.328-8.5-7.414-14-9.25c-5.5-1.828-11.422-2.75-17.75-2.75c-11.336,0-20.672,2.25-28,6.75
		c-7.336,4.5-13.172,10.586-17.5,18.25c-4.336,7.672-7.586,16.5-9.75,26.5c-2.172,10-3.586,20.5-4.25,31.5H2421.952z"/>
	<path d="M2491.452,373h38.5V172.5h-38.5v-7h80.5V216h1c1.328-5,3.5-10.664,6.5-17c3-6.328,7.164-12.414,12.5-18.25
		c5.328-5.828,11.75-10.75,19.25-14.75s16.578-6,27.25-6c7.664,0,14.328,1.25,20,3.75c5.664,2.5,10.328,5.672,14,9.5
		c3.664,3.836,6.328,8.25,8,13.25c1.664,5,2.5,10,2.5,15c0,11-2.5,18.336-7.5,22c-5,3.672-10.836,5.5-17.5,5.5
		c-14.672,0-22-4.664-22-14c0-3,0.328-5.414,1-7.25c0.664-1.828,1.414-3.664,2.25-5.5c0.828-1.828,1.578-3.914,2.25-6.25
		c0.664-2.328,1-5.664,1-10c0-10.664-5.836-16-17.5-16c-5.336,0-11,2-17,6s-11.586,9.836-16.75,17.5
		c-5.172,7.672-9.5,16.922-13,27.75c-3.5,10.836-5.25,23.25-5.25,37.25V373h43.5v7h-125V373z"/>
</g>
<path fill="#1DACE9" d="M63.877-3226.716l-18,49h54.5l-2,7h-54.5l-57,159c-1.672,5-3.336,10.172-5,15.5
	c-1.672,5.336-2.5,10.672-2.5,16c0,5,1.25,9,3.75,12s6.578,4.5,12.25,4.5c6,0,11.664-1.828,17-5.5
	c5.328-3.664,10.164-7.914,14.5-12.75c4.328-4.828,8-9.75,11-14.75s5.164-9,6.5-12l6,2.5c-1.336,2.672-3.5,6.75-6.5,12.25
	s-7,11-12,16.5s-11.25,10.25-18.75,14.25s-16.422,6-26.75,6c-12.672,0-22.172-3.086-28.5-9.25c-6.336-6.164-9.5-13.578-9.5-22.25
	c0-6.664,1.25-14.25,3.75-22.75s5.078-16.25,7.75-23.25l49-136h-45l2-7h45l18-49H63.877z"/>
<path d="M120.245-3072.216h5.5c3.665,18,8.415,33.172,14.25,45.5c5.829,12.336,12.25,22.5,19.25,30.5s14.329,14.172,22,18.5
	c7.665,4.336,15.415,7.5,23.25,9.5c7.829,2,15.329,3.172,22.5,3.5c7.165,0.328,13.915,0.5,20.25,0.5c17.665,0,32.165-2.664,43.5-8
	c11.329-5.328,20.329-12.078,27-20.25c6.665-8.164,11.329-17,14-26.5c2.665-9.5,4-18.25,4-26.25c0-11.664-2.172-21.664-6.5-30
	c-4.335-8.328-9.835-15.414-16.5-21.25c-6.671-5.828-13.921-10.578-21.75-14.25c-7.835-3.664-15.25-6.5-22.25-8.5l-57.5-17.5
	c-27-8.328-47.421-19.328-61.25-33c-13.835-13.664-20.75-32-20.75-55c0-15,2.665-28.914,8-41.75
	c5.329-12.828,12.829-23.914,22.5-33.25c9.665-9.328,21.25-16.664,34.75-22c13.5-5.328,28.25-8,44.25-8c11.665,0,21.415,1,29.25,3
	c7.829,2,14.579,4.25,20.25,6.75c5.665,2.5,10.75,4.75,15.25,6.75s9.079,3,13.75,3c4.329,0,7.25-0.578,8.75-1.75
	c1.5-1.164,3.579-4.078,6.25-8.75h7v90.5h-6c-2-12-5.422-23.578-10.25-34.75c-4.835-11.164-11.085-21-18.75-29.5
	c-7.671-8.5-16.921-15.328-27.75-20.5c-10.835-5.164-23.421-7.75-37.75-7.75c-8,0-16.835,1.086-26.5,3.25
	c-9.671,2.172-18.671,5.922-27,11.25c-8.335,5.336-15.25,12.336-20.75,21c-5.5,8.672-8.25,19.672-8.25,33
	c0,10.672,2.165,19.75,6.5,27.25c4.329,7.5,9.915,13.836,16.75,19c6.829,5.172,14.5,9.5,23,13s17.079,6.586,25.75,9.25l60.5,19
	c6.329,2,14.329,4.672,24,8c9.665,3.336,19.079,8.336,28.25,15c9.164,6.672,17,15.5,23.5,26.5s9.75,25,9.75,42
	c0,15.672-2.922,30.586-8.75,44.75c-5.836,14.172-14.25,26.672-25.25,37.5c-11,10.836-24.336,19.5-40,26
	c-15.671,6.5-33.335,9.75-53,9.75c-7,0-13.171-0.086-18.5-0.25c-5.335-0.172-10.335-0.586-15-1.25c-4.671-0.672-9.335-1.422-14-2.25
	c-4.671-0.836-9.835-2.086-15.5-3.75c-6.671-2-13.835-4.328-21.5-7c-7.671-2.664-14.335-4-20-4c-5,0-8.421,1-10.25,3
	c-1.835,2-3.421,4.672-4.75,8h-7.5V-3072.216z"/>
</svg>
